<svg id="레이어_1" data-name="레이어 1" xmlns="http://www.w3.org/2000/svg" viewBox="0 0 225.3 36"><path d="M393,175.63c0-3.7-2.35-4.4-6.4-5.9l-2.4-.9c-2.65-1-4.45-2-5.75-3.55a8.83,8.83,0,0,1-2.1-5.9c0-4.5,3.35-9.55,10.65-9.55,6.7,0,10.75,4,10.75,10.45h-5.3v-.65c0-3.2-2.25-4.95-5.45-4.95s-5.35,1.75-5.35,4.6c0,2.5,1.4,3.75,5.8,5.4l2,.75c3.1,1.15,4.95,2.15,6.45,3.75a8.39,8.39,0,0,1,2.4,6.25c0,5.55-4.65,10.4-11.25,10.4s-11.55-4.1-11.55-11.2h5.3v.5c0,3.65,2.6,5.85,6.25,5.85S393,178.88,393,175.63Z" transform="translate(-375.5 -149.83)"/><path d="M408.4,185.33h-4.7v-35h4.7v11.25a7.84,7.84,0,0,1,5.55-1.8,8.13,8.13,0,0,1,8.4,8.35v17.2H417.6V169.48a5.48,5.48,0,0,0-1.3-4.1,4.84,4.84,0,0,0-6.6,0c-.8.8-1.3,2-1.3,4.1Z" transform="translate(-375.5 -149.83)"/><path d="M453.1,172.73a13,13,0,1,1-13-13A12.58,12.58,0,0,1,453.1,172.73Zm-4.75,0c0-4.7-3.25-8.55-8.25-8.55s-8.25,3.85-8.25,8.55,3.25,8.55,8.25,8.55S448.35,177.43,448.35,172.73Z" transform="translate(-375.5 -149.83)"/><path d="M474.3,165.43l-5.9,19.9h-5.7l-7.85-25h4.9l5.85,19.35,5.65-19.35h6.1L483,179.68l5.85-19.35h4.95l-7.9,25h-5.7Z" transform="translate(-375.5 -149.83)"/><path d="M516.75,168.78c-.8-2.75-3.55-4.6-7.2-4.6-5,0-8.25,3.85-8.25,8.55s3.25,8.55,8.25,8.55c4.35,0,6.55-2.25,7.4-4.45h4.65c-1,4.65-5.05,8.9-12.05,8.9a13,13,0,0,1,0-26c6.8,0,11.15,4.25,11.85,9.05Z" transform="translate(-375.5 -149.83)"/><path d="M524.85,172.73c0-7.25,5.3-13,12.65-13a11.4,11.4,0,0,1,8.5,3.55l.9-2.95h3.75v25H546.9l-.9-3.15a11.21,11.21,0,0,1-8.5,3.55C530.15,185.73,524.85,180,524.85,172.73Zm21.25,0c0-4.7-3.25-8.55-8.25-8.55s-8.25,3.85-8.25,8.55,3.25,8.55,8.25,8.55S546.1,177.43,546.1,172.73Z" transform="translate(-375.5 -149.83)"/><path d="M555.3,177.83h4.6a3.56,3.56,0,0,0,3.75,3.9,3.4,3.4,0,0,0,3.7-3.45c0-1.95-1.35-2.75-3.1-3.35l-1.65-.55c-4.15-1.4-7-2.95-7-7.35,0-3.5,2.5-7.25,7.9-7.25,4.85,0,8,2.95,8,7.8H566.9v-.15c0-2.15-1.2-3.6-3.35-3.6a3.07,3.07,0,0,0-3.3,3.2c0,1.95,1.7,2.75,3.75,3.4l1.7.55c3.45,1.1,6.25,2.75,6.25,7.3s-3.85,7.5-8.35,7.5C558.5,185.78,555.3,182.43,555.3,177.83Z" transform="translate(-375.5 -149.83)"/><path d="M588.85,185.73c-7.6,0-12.8-5.85-12.8-13s5.15-13,12.4-13c7.55,0,12.35,5.5,12.35,12.75a12,12,0,0,1-.2,2.1H581a7.66,7.66,0,0,0,7.9,6.8c4.35,0,5.8-1.6,6.75-3.55h5C599.3,181.83,595.4,185.73,588.85,185.73ZM581,170.48h15c-.25-3.25-2.85-6.4-7.5-6.4S581.2,167.23,581,170.48Z" transform="translate(-375.5 -149.83)"/></svg>